{"title":"The Devil Inside CAM XviD READNFO - NoZGT","uid":7005188,"size":891427257,"categoryP":"video","categoryS":"movies","magnet":"?xt=urn:btih:58a8fe180c85b283a395a984bd4d91002b13ddb9&amp;dn=The+Devil+Inside+CAM+XviD+READNFO+-+NoZGT&amp;tr=udp%3A%2F%2Ftracker.openbittorrent.com%3A80&amp;tr=udp%3A%2F%2Fopen.demonii.com%3A1337&amp;tr=udp%3A%2F%2Ftracker.coppersurfer.tk%3A6969&amp;tr=udp%3A%2F%2Fexodus.desync.com%3A6969","seeders":1,"leechers":0,"uploader":"TvTeam","files":10,"time":1328241231,"description":". \n &lt;a href=&quot;\nhttp://www.torrenting.com&quot; rel=&quot;nofollow&quot; target=&quot;_NEW&quot;&gt;\nhttp://www.torrenting.com&lt;/a&gt;          :     Once &amp; For all ;)\n\n\n               www . Torrenting . Com \n\n(((((((((((((= Enjoy No RAR releases =))))))))))))))))))))\n\n\n...................................NFO:....................................\n\n.\n    The Devil Inside CAM XviD READNFO - NoZGT\n\n\nSources:\nThe Devil Inside 2012 CAM XVID NEW SOURCE UnKnOwN....THX\nThe.Devil.Inside.2012.Cam.SeT-CM8....THX for 1min 45sec in focus\n\nFormat                           : AVI\nFormat/Info                      : Audio Video Interleave\nFile size                        : 834 MiB\nDuration                         : 1h 15mn\nOverall bit rate                 : 1 543 Kbps\nWriting library                  : VirtualDub build 33848/release\n\nVideo\nID                               : 0\nFormat                           : MPEG-4 Visual\nFormat profile                   : Advanced Simple@L5\nFormat settings, BVOP            : Yes\nFormat settings, QPel            : No\nFormat settings, GMC             : No warppoints\nFormat settings, Matrix          : Default (H.263)\nMuxing mode                      : Packed bitstream\nCodec ID                         : XVID\nCodec ID/Hint                    : XviD\nDuration                         : 1h 15mn\nBit rate                         : 1 403 Kbps\nWidth                            : 720 pixels\nHeight                           : 304 pixels\nDisplay aspect ratio             : 2.35:1\nFrame rate                       : 29.970 fps\nColor space                      : YUV\nChroma subsampling               : 4:2:0\nBit depth                        : 8 bits\nScan type                        : Progressive\nBits/(Pixel*Frame)               : 0.214\nStream size                      : 758 MiB (91%)\nWriting library                  : XviD 1.2.1 (UTC 2008-12-04)\n\nAudio\nID                               : 1\nFormat                           : MPEG Audio\nFormat version                   : Version 1\nFormat profile                   : Layer 3\nMode                             : Joint stereo\nMode extension                   : MS Stereo\nCodec ID                         : 55\nCodec ID/Hint                    : MP3\nDuration                         : 1h 15mn\nBit rate mode                    : Constant\nBit rate                         : 128 Kbps\nChannel(s)                       : 2 channels\nSampling rate                    : 48.0 KHz\nStream size                      : 69.2 MiB (8%)\nAlignment                        : Split accross interleaves\nInterleave, duration             : 33 ms (1.00 video frame)\nInterleave, preload duration     : 500 ms\n\nWorkdone:\nWell first off I thought I fix the out of focus footage. I used cm8 source and had to adjust the AR to fit with the new source. After that I stripped the audio from UnKnOwN source, ran it threw a denoiser and did some audio enhancements. I then combined the video with the in focus footage and sync the audio and turn out well. Did my usual levels, contrast, saturation adjustment. Hope everyone likes. \n\nNoZGT","torrent":{"xt":"urn:btih:58a8fe180c85b283a395a984bd4d91002b13ddb9","amp;dn":"The+Devil+Inside+CAM+XviD+READNFO+-+NoZGT","amp;tr":["udp%3A%2F%2Ftracker.openbittorrent.com%3A80","udp%3A%2F%2Fopen.demonii.com%3A1337","udp%3A%2F%2Ftracker.coppersurfer.tk%3A6969","udp%3A%2F%2Fexodus.desync.com%3A6969"],"infoHash":"58a8fe180c85b283a395a984bd4d91002b13ddb9","infoHashBuffer":{"type":"Buffer","data":[88,168,254,24,12,133,178,131,163,149,169,132,189,77,145,0,43,19,221,185]},"announce":[],"urlList":[]}}